<svg id="92987872-704b-4662-b086-a1ae583400c7" data-name="The Starting Point Photo" xmlns="http://www.w3.org/2000/svg" width="175" height="35" viewBox="0 0 175 35">
  <title>Artboard 4</title>
  <g>
    <path d="M1.22949,7.44092H9.71973L12.68164,12.644l3.4541-5.20313h7.89258l-6.36816,8.89453,6.8252,9.77295H16.13574l-3.4541-6.01172L8.62988,26.1084H.87793L7.6582,16.33545Z"/>
    <path d="M24.78418,7.44092H32.333l3.85059,12.42725L39.75977,7.44092h7.0498l-7.40625,19.9458a12.12,12.12,0,0,1-2.583,4.60938q-1.86328,1.689-5.67578,1.68848a41.01638,41.01638,0,0,1-4.7793-.42187l-.56152-4.99219a11.30854,11.30854,0,0,0,3.44238.49219,3.34928,3.34928,0,0,0,2.0459-.58008,4.411,4.411,0,0,0,1.32617-2.07715Z"/>
    <path d="M48.02246,7.44092H65.33691v4.18359L55.915,21.22168H65.917V26.1084H47.31934V21.46777l8.94922-9.14014H48.02246Z"/>
    <path d="M67.88574,26.1084,71.78809,7.44092h2.8125l-.791,3.81445a12.98338,12.98338,0,0,1,2.82129-3.19922A4.65555,4.65555,0,0,1,79.45215,7.019,5.5363,5.5363,0,0,1,81.79,7.70459l-1.30078,2.95312a3.0222,3.0222,0,0,0-1.81055-.59766A4.90337,4.90337,0,0,0,75.251,11.92334q-1.75781,1.86328-2.75977,6.69678l-1.582,7.48828Z"/>
    <path d="M93.585,19.7627l3.09375.31641a9.36389,9.36389,0,0,1-3.06738,4.377,8.45994,8.45994,0,0,1-5.72168,2.07422,7.72928,7.72928,0,0,1-3.80566-.958,6.29,6.29,0,0,1-2.63672-2.78613,9.26547,9.26547,0,0,1-.90527-4.166A13.27993,13.27993,0,0,1,81.957,12.688a10.10368,10.10368,0,0,1,3.665-4.27148A9.05953,9.05953,0,0,1,90.49121,7.019a7.05865,7.05865,0,0,1,5.335,2.07422,7.82332,7.82332,0,0,1,1.99512,5.66016,16.6987,16.6987,0,0,1-.24609,2.8125H83.8291a7.75921,7.75921,0,0,0-.07031.98389,5.90868,5.90868,0,0,0,1.2041,3.999,3.76317,3.76317,0,0,0,2.94434,1.37988,5.67978,5.67978,0,0,0,3.2168-1.07227A6.98,6.98,0,0,0,93.585,19.7627Zm-9.24609-4.62256H94.81543q.01758-.49219.01758-.70312a5.16023,5.16023,0,0,0-1.19531-3.665,4.02857,4.02857,0,0,0-3.07617-1.27441,5.65355,5.65355,0,0,0-3.71777,1.40625A8.43407,8.43407,0,0,0,84.33887,15.14014Z"/>
    <path d="M112.48145,23.78809a12.64665,12.64665,0,0,1-3.18164,2.083,8.17107,8.17107,0,0,1-3.26953.65918,5.76,5.76,0,0,1-4.166-1.52051,5.164,5.164,0,0,1-1.582-3.89355,5.33331,5.33331,0,0,1,.71191-2.76807,5.58006,5.58006,0,0,1,1.88965-1.93359,8.31992,8.31992,0,0,1,2.88281-1.0459,32.18764,32.18764,0,0,1,4.06934-.334,14.54733,14.54733,0,0,0,4.29785-.63281,8.22857,8.22857,0,0,0,.36914-2.16211,2.08842,2.08842,0,0,0-.80859-1.74023A5.11456,5.11456,0,0,0,110.46,9.62061a5.61172,5.61172,0,0,0-3.27832.8877,5.01244,5.01244,0,0,0-1.85449,2.52246l-3.2168-.28125a8.39921,8.39921,0,0,1,3.12012-4.25391,9.259,9.259,0,0,1,5.3877-1.47656,8.41245,8.41245,0,0,1,5.48438,1.65234,3.898,3.898,0,0,1,1.54688,3.19922A16.14979,16.14979,0,0,1,117.21,15.3335l-1.03711,4.64014a17.38446,17.38446,0,0,0-.49219,3.60352,12.06521,12.06521,0,0,0,.38672,2.53125h-3.2168A11.73284,11.73284,0,0,1,112.48145,23.78809Zm1.17773-7.13623a7.67279,7.67279,0,0,1-1.43262.4043q-.76465.14063-2.55762.29883a19.57736,19.57736,0,0,0-3.91992.624,3.281,3.281,0,0,0-1.72266,1.20361,3.11046,3.11046,0,0,0-.58008,1.82813,2.87337,2.87337,0,0,0,.92285,2.19727,3.70842,3.70842,0,0,0,2.62793.86133,6.2153,6.2153,0,0,0,5.34375-3.16406A13.51844,13.51844,0,0,0,113.65918,16.65186Z"/>
    <path d="M132.50293,23.40137q-2.72461,3.12891-5.69531,3.12891a5.70357,5.70357,0,0,1-4.4209-1.96,8.22286,8.22286,0,0,1-1.7666-5.68652,13.84343,13.84343,0,0,1,1.39746-6.231,10.57272,10.57272,0,0,1,3.498-4.22754,7.52,7.52,0,0,1,4.21-1.40625,5.6545,5.6545,0,0,1,5.25586,3.35742L137.09082.33936h3.16406L134.876,26.1084h-2.93555Zm-8.71875-5.11475a9.78268,9.78268,0,0,0,.38672,3.07568,4.03587,4.03587,0,0,0,1.31836,1.87207,3.45762,3.45762,0,0,0,2.23242.74707,4.98333,4.98333,0,0,0,3.91992-2.25,11.55534,11.55534,0,0,0,2.35547-7.38232,4.89022,4.89022,0,0,0-1.16016-3.46289,3.81521,3.81521,0,0,0-2.918-1.248,4.29964,4.29964,0,0,0-2.083.50977,6.07942,6.07942,0,0,0-1.86328,1.73145,10.87974,10.87974,0,0,0-1.55566,3.10254A10.56222,10.56222,0,0,0,123.78418,18.28662Z"/>
    <path d="M153.64941,19.7627l3.09375.31641a9.36389,9.36389,0,0,1-3.06738,4.377,8.45994,8.45994,0,0,1-5.72168,2.07422,7.72928,7.72928,0,0,1-3.80566-.958,6.29,6.29,0,0,1-2.63672-2.78613,9.26547,9.26547,0,0,1-.90527-4.166,13.27993,13.27993,0,0,1,1.415-5.93213,10.10368,10.10368,0,0,1,3.665-4.27148A9.05953,9.05953,0,0,1,150.55566,7.019a7.05865,7.05865,0,0,1,5.335,2.07422,7.82332,7.82332,0,0,1,1.99512,5.66016,16.6987,16.6987,0,0,1-.24609,2.8125H143.89355a7.75921,7.75921,0,0,0-.07031.98389,5.90868,5.90868,0,0,0,1.2041,3.999,3.76317,3.76317,0,0,0,2.94434,1.37988,5.67978,5.67978,0,0,0,3.2168-1.07227A6.98,6.98,0,0,0,153.64941,19.7627Zm-9.24609-4.62256h10.47656q.01758-.49219.01758-.70312a5.16023,5.16023,0,0,0-1.19531-3.665A4.02857,4.02857,0,0,0,150.626,9.49756a5.65355,5.65355,0,0,0-3.71777,1.40625A8.43407,8.43407,0,0,0,144.40332,15.14014Z"/>
    <path d="M159.96,26.1084,163.8623,7.44092h2.8125l-.791,3.81445a12.98338,12.98338,0,0,1,2.82129-3.19922A4.65555,4.65555,0,0,1,171.52637,7.019a5.5363,5.5363,0,0,1,2.33789.68555l-1.30078,2.95312a3.0222,3.0222,0,0,0-1.81055-.59766,4.90337,4.90337,0,0,0-3.42773,1.86328q-1.75781,1.86328-2.75977,6.69678l-1.582,7.48828Z"/>
  </g>
</svg>
