<svg xmlns="http://www.w3.org/2000/svg" viewBox="0 0 175 35"><title>logoArtboard 4</title><path d="M1.23,7.44H9.72l3,5.2,3.45-5.2H24l-6.37,8.89,6.83,9.77H16.14l-3.45-6-4.05,6H.88l6.78-9.77Z"/><path d="M24.78,7.44h7.55l3.85,12.43L39.76,7.44h7L39.4,27.39A12.12,12.12,0,0,1,36.82,32Q35,33.69,31.14,33.68a41,41,0,0,1-4.78-.42l-.56-5a11.31,11.31,0,0,0,3.44.49,3.35,3.35,0,0,0,2-.58,4.41,4.41,0,0,0,1.33-2.08Z"/><path d="M48,7.44H65.34v4.18l-9.42,9.6h10v4.89H47.32V21.47l8.95-9.14H48Z"/><path d="M67.89,26.11l3.9-18.67H74.6l-.79,3.81a13,13,0,0,1,2.82-3.2,4.66,4.66,0,0,1,2.82-1,5.54,5.54,0,0,1,2.34.69l-1.3,3a3,3,0,0,0-1.81-.6,4.9,4.9,0,0,0-3.43,1.86q-1.76,1.86-2.76,6.7l-1.58,7.49Z"/><path d="M93.58,19.76l3.09.32a9.36,9.36,0,0,1-3.07,4.38,8.46,8.46,0,0,1-5.72,2.07,7.73,7.73,0,0,1-3.81-1,6.29,6.29,0,0,1-2.64-2.79,9.27,9.27,0,0,1-.91-4.17A13.28,13.28,0,0,1,82,12.69a10.1,10.1,0,0,1,3.67-4.27A9.06,9.06,0,0,1,90.49,7a7.06,7.06,0,0,1,5.33,2.07,7.82,7.82,0,0,1,2,5.66,16.7,16.7,0,0,1-.25,2.81H83.83a7.76,7.76,0,0,0-.07,1,5.91,5.91,0,0,0,1.2,4,3.76,3.76,0,0,0,2.94,1.38,5.68,5.68,0,0,0,3.22-1.07A7,7,0,0,0,93.58,19.76Zm-9.25-4.62H94.82q0-.49,0-.7a5.16,5.16,0,0,0-1.2-3.67A4,4,0,0,0,90.56,9.5a5.65,5.65,0,0,0-3.72,1.41A8.43,8.43,0,0,0,84.34,15.14Z"/><path d="M112.48,23.79a12.65,12.65,0,0,1-3.18,2.08,8.17,8.17,0,0,1-3.27.66A5.76,5.76,0,0,1,101.86,25a5.16,5.16,0,0,1-1.58-3.89,5.33,5.33,0,0,1,.71-2.77,5.58,5.58,0,0,1,1.89-1.93,8.32,8.32,0,0,1,2.88-1,32.19,32.19,0,0,1,4.07-.33,14.55,14.55,0,0,0,4.3-.63,8.23,8.23,0,0,0,.37-2.16,2.09,2.09,0,0,0-.81-1.74,5.11,5.11,0,0,0-3.23-.88,5.61,5.61,0,0,0-3.28.89A5,5,0,0,0,105.33,13l-3.22-.28a8.4,8.4,0,0,1,3.12-4.25A9.26,9.26,0,0,1,110.62,7a8.41,8.41,0,0,1,5.48,1.65,3.9,3.9,0,0,1,1.55,3.2,16.15,16.15,0,0,1-.44,3.46l-1,4.64a17.38,17.38,0,0,0-.49,3.6,12.07,12.07,0,0,0,.39,2.53h-3.22A11.73,11.73,0,0,1,112.48,23.79Zm1.18-7.14a7.67,7.67,0,0,1-1.43.4q-.76.14-2.56.3a19.58,19.58,0,0,0-3.92.62,3.28,3.28,0,0,0-1.72,1.2,3.11,3.11,0,0,0-.58,1.83,2.87,2.87,0,0,0,.92,2.2,3.71,3.71,0,0,0,2.63.86,6.22,6.22,0,0,0,5.34-3.16A13.52,13.52,0,0,0,113.66,16.65Z"/><path d="M132.5,23.4q-2.72,3.13-5.7,3.13a5.7,5.7,0,0,1-4.42-2,8.22,8.22,0,0,1-1.77-5.69,13.84,13.84,0,0,1,1.4-6.23,10.57,10.57,0,0,1,3.5-4.23A7.52,7.52,0,0,1,129.73,7,5.65,5.65,0,0,1,135,10.38l2.11-10h3.16l-5.38,25.77h-2.94Zm-8.72-5.11a9.78,9.78,0,0,0,.39,3.08,4,4,0,0,0,1.32,1.87,3.46,3.46,0,0,0,2.23.75,5,5,0,0,0,3.92-2.25A11.56,11.56,0,0,0,134,14.35a4.89,4.89,0,0,0-1.16-3.46,3.82,3.82,0,0,0-2.92-1.25,4.3,4.3,0,0,0-2.08.51A6.08,6.08,0,0,0,126,11.88a10.88,10.88,0,0,0-1.56,3.1A10.56,10.56,0,0,0,123.78,18.29Z"/><path d="M153.65,19.76l3.09.32a9.36,9.36,0,0,1-3.07,4.38A8.46,8.46,0,0,1,148,26.53a7.73,7.73,0,0,1-3.81-1,6.29,6.29,0,0,1-2.64-2.79,9.27,9.27,0,0,1-.91-4.17A13.28,13.28,0,0,1,142,12.69a10.1,10.1,0,0,1,3.67-4.27A9.06,9.06,0,0,1,150.56,7a7.06,7.06,0,0,1,5.33,2.07,7.82,7.82,0,0,1,2,5.66,16.7,16.7,0,0,1-.25,2.81H143.89a7.76,7.76,0,0,0-.07,1,5.91,5.91,0,0,0,1.2,4A3.76,3.76,0,0,0,148,23.93a5.68,5.68,0,0,0,3.22-1.07A7,7,0,0,0,153.65,19.76Zm-9.25-4.62h10.48q0-.49,0-.7a5.16,5.16,0,0,0-1.2-3.67,4,4,0,0,0-3.08-1.27,5.65,5.65,0,0,0-3.72,1.41A8.43,8.43,0,0,0,144.4,15.14Z"/><path d="M160,26.11l3.9-18.67h2.81l-.79,3.81a13,13,0,0,1,2.82-3.2,4.66,4.66,0,0,1,2.82-1,5.54,5.54,0,0,1,2.34.69l-1.3,3a3,3,0,0,0-1.81-.6,4.9,4.9,0,0,0-3.43,1.86q-1.76,1.86-2.76,6.7L163,26.11Z"/></svg>